# xmcd
#
# Track frame offsets: 
#        151
#        9562
#        23936
#        39727
#        51746
#        64027
#        79737
#        97567
#        110415
#        130296
#        145331
#        159544
#        171238
#        195287
#
# Disc length: 2834 seconds
#
# Revision: 2
# Processed by: cddbd v1.5.2PL0 Copyright (c) Steve Scherf et al.
# Submitted via: ExactAudioCopyFreeDBPlugin 1.0
#
DISCID=b80b100e
DTITLE=Al Jarreau - Love and Happiness
DYEAR=1998
DGENRE=Soul
TTITLE0=Ain't No Sunshine
TTITLE1=You Ought To Be With Me
TTITLE2=Same Love That Made Me laugh
TTITLE3=Look What You Done For Me
TTITLE4=Livin' For You
TTITLE5=Let's Get Married
TTITLE6=Here I Am Baby
TTITLE7=I'm Still In Love With You
TTITLE8=Lean On Me
TTITLE9=Let's stay Together
TTITLE10=Love and Happiness
TTITLE11=Tired Of Being Alone
TTITLE12=You
TTITLE13=Kissing My Love
EXTD=
EXTT0=
EXTT1=
EXTT2=
EXTT3=
EXTT4=
EXTT5=
EXTT6=
EXTT7=
EXTT8=
EXTT9=
EXTT10=
EXTT11=
EXTT12=
EXTT13=
PLAYORDER=
